FILE "Dexter's Laboratory - Mandarks Labor (E) (Fr,De) (Track 1) [SLES-03829].bin" BINARY
  TRACK 01 MODE2/2352
    INDEX 01 00:00:00
FILE "Dexter's Laboratory - Mandarks Labor (E) (Fr,De) (Track 2) [SLES-03829].bin" BINARY
  TRACK 02 AUDIO
    INDEX 00 00:00:00
    INDEX 01 00:02:00
FILE "Dexter's Laboratory - Mandarks Labor (E) (Fr,De) (Track 3) [SLES-03829].bin" BINARY
  TRACK 03 AUDIO
    INDEX 00 00:00:00
    INDEX 01 00:02:00
